# xmcd CD database file
# Copyright (C) 1993-1998 Ti Kan
#
# Track frame offsets:
#  150
#  15707
#  48812
#  77310
#  91585
#  105487
#  133567
#  156150
#  176690
#
# Disc length: 2544 seconds
#
# Revision: 1
# Processed by: cddbd v1.4b41PL1 Copyright (c) Steve Scherf et al.
# Submitted via: CDWizzard Release:4.35
#
DISCID=5809ee09
DTITLE=Ebonys - The Ebonys
DYEAR=1900
DGENRE=
TTITLE0=Hook Up and Get Down
TTITLE1=It's Forever
TTITLE2=Life in the Country
TTITLE3=Sexy Ways
TTITLE4=I'm So Glad I'm Me
TTITLE5=I'll Try
TTITLE6=Nation Time
TTITLE7=I Believe
TTITLE8=You're the Reason Why
EXTD=
EXTT0=
EXTT1=
EXTT2=
EXTT3=
EXTT4=
EXTT5=
EXTT6=
EXTT7=
EXTT8=
PLAYORDER=
